<svg xmlns="http://www.w3.org/2000/svg" xmlns:xlink="http://www.w3.org/1999/xlink" preserveAspectRatio="xMidYMid meet" width="1920" height="1080" viewBox="0 0 1920 1080" style="width:100%;height:100%">
  <!-- Add style section at the top -->
  <style>
    :root {
      --logo-color: #1d1d1b;
      --logo-accent-color: colors.primary;
    }
  </style>

  <!-- Add script to handle theme changes -->
  <script>
    window.addEventListener('message', (e) => {
      if (e.data === 'theme-dark') {
        document.documentElement.style.setProperty('--logo-color', 'white');
      } else if (e.data === 'theme-light') {
        document.documentElement.style.setProperty('--logo-color', '#1d1d1b');
      }
    });
  </script>

  <defs>
    <animateMotion repeatCount="indefinite" dur="3.2s" begin="0s" xlink:href="#_R_G_L_0_G_L_26_G" fill="freeze" keyTimes="0;0.5;1" path="M960 1.54 C640,1.54 -960,1.54 -960,1.54 C-960,1.54 640,1.54 960,1.54 " keyPoints="0;0.5;1" keySplines="0.167 0.167 0.833 0.833;0.167 0.167 0.833 0.833" calcMode="spline"/>
    <animateTransform repeatCount="indefinite" dur="3.2s" begin="0s" xlink:href="#_R_G_L_0_G_L_26_G" fill="freeze" attributeName="transform" from="0.5 0.5" to="0.5 0.5" type="scale" additive="sum" keyTimes="0;0.25;0.5;0.75;1" values="0.5 0.5;0.25 0.25;0.5 0.5;1 1;0.5 0.5" keySplines="0.167 0.167 0.833 0.833;0.167 0.167 0.833 0.833;0.167 0.167 0.833 0.833;0.167 0.167 0.833 0.833" calcMode="spline"/>
    <animateMotion repeatCount="indefinite" dur="3.2s" begin="0s" xlink:href="#_R_G_L_0_G_L_25_G" fill="freeze" keyTimes="0;0.5;1" path="M-960 1.54 C-640,1.54 960,1.54 960,1.54 C960,1.54 -640,1.54 -960,1.54 " keyPoints="0;0.5;1" keySplines="0.167 0.167 0.833 0.833;0.167 0.167 0.833 0.833" calcMode="spline"/>
    <animateTransform repeatCount="indefinite" dur="3.2s" begin="0s" xlink:href="#_R_G_L_0_G_L_25_G" fill="freeze" attributeName="transform" from="0.5 0.5" to="0.5 0.5" type="scale" additive="sum" keyTimes="0;0.25;0.5;0.75;1" values="0.5 0.5;1 1;0.5 0.5;0.25 0.25;0.5 0.5" keySplines="0.167 0.167 0.833 0.833;0.167 0.167 0.833 0.833;0.167 0.167 0.833 0.833;0.167 0.167 0.833 0.833" calcMode="spline"/>
    <animateTransform repeatCount="indefinite" dur="3.2s" begin="0s" xlink:href="#_R_G_L_0_G_L_24_G" fill="freeze" attributeName="transform" from="1 1" to="1 1" type="scale" additive="sum" keyTimes="0;0.25;0.5;0.75;1" values="1 1;0 1;0.89333 1;0 1;1 1" keySplines="0.167 0.167 0.833 0.833;0.167 0.167 0.833 0.833;0.167 0.167 0.833 0.833;0.167 0.167 0.833 0.833" calcMode="spline"/>
    <animateTransform repeatCount="indefinite" dur="3.2s" begin="0s" xlink:href="#_R_G_L_0_G_L_23_G" fill="freeze" attributeName="transform" from="0.5 1" to="0.5 1" type="scale" additive="sum" keyTimes="0;0.125;0.375;0.625;0.875;1" values="0.5 1;1 1;0 1;0.89333 1;0 1;0.5 1" keySplines="0.167 0.167 0.833 0.833;0.167 0.167 0.833 0.833;0.167 0.167 0.833 0.833;0.167 0.167 0.833 0.833;0.167 0.167 0.833 0.833" calcMode="spline"/>
    <animateMotion repeatCount="indefinite" dur="3.2s" begin="0s" xlink:href="#_R_G_L_0_G_L_22_G" fill="freeze" keyTimes="0;0.125;0.625;1" path="M-480 1.54 C-480,1.54 -960,1.54 -960,1.54 C-960,1.54 960,1.54 960,1.54 C960,1.54 104.98,1.54 -480,1.54 " keyPoints="0;0.13;0.63;1" keySplines="0.167 0.167 0.833 0.833;0.167 0.167 0.833 0.833;0.167 0.167 0.833 0.833" calcMode="spline"/>
    <animateTransform repeatCount="indefinite" dur="3.2s" begin="0s" xlink:href="#_R_G_L_0_G_L_22_G" fill="freeze" attributeName="transform" from="0.375 0.375" to="0.375 0.375" type="scale" additive="sum" keyTimes="0;0.125;0.375;0.625;0.875;1" values="0.375 0.375;0.5 0.5;1 1;0.5 0.5;0.25 0.25;0.375 0.375" keySplines="0.167 0.167 0.833 0.833;0.167 0.167 0.833 0.833;0.167 0.167 0.833 0.833;0.167 0.167 0.833 0.833;0.167 0.167 0.833 0.833" calcMode="spline"/>
    <animateMotion repeatCount="indefinite" dur="3.2s" begin="0s" xlink:href="#_R_G_L_0_G_L_21_G" fill="freeze" keyTimes="0;0.125;0.625;1" path="M480 1.54 C480,1.54 960,1.54 960,1.54 C960,1.54 -960,1.54 -960,1.54 C-960,1.54 -104.98,1.54 480,1.54 " keyPoints="0;0.13;0.63;1" keySplines="0.167 0.167 0.833 0.833;0.167 0.167 0.833 0.833;0.167 0.167 0.833 0.833" calcMode="spline"/>
    <animateTransform repeatCount="indefinite" dur="3.2s" begin="0s" xlink:href="#_R_G_L_0_G_L_21_G" fill="freeze" attributeName="transform" from="0.75 0.75" to="0.75 0.75" type="scale" additive="sum" keyTimes="0;0.125;0.375;0.625;0.875;1" values="0.75 0.75;0.5 0.5;0.25 0.25;0.5 0.5;1 1;0.75 0.75" keySplines="0.167 0.167 0.833 0.833;0.167 0.167 0.833 0.833;0.167 0.167 0.833 0.833;0.167 0.167 0.833 0.833;0.167 0.167 0.833 0.833" calcMode="spline"/>
    <animateTransform repeatCount="indefinite" dur="3.2s" begin="0s" xlink:href="#_R_G_L_0_G_L_20_G" fill="freeze" attributeName="transform" from="0 1" to="0 1" type="scale" additive="sum" keyTimes="0;0.25;0.5;0.75;1" values="0 1;1 1;0 1;0.89333 1;0 1" keySplines="0.167 0.167 0.833 0.833;0.167 0.167 0.833 0.833;0.167 0.167 0.833 0.833;0.167 0.167 0.833 0.833" calcMode="spline"/>
    <animateMotion repeatCount="indefinite" dur="3.2s" begin="0s" xlink:href="#_R_G_L_0_G_L_19_G" fill="freeze" keyTimes="0;0.25;0.75;1" path="M0 1.54 C0,1.54 -960,1.54 -960,1.54 C-960,1.54 960,1.54 960,1.54 C960,1.54 484.44,1.54 -0.01,1.54 " keyPoints="0;0.25;0.75;1" keySplines="0.167 0.167 0.833 0.833;0.167 0.167 0.833 0.833;0.167 0.167 0.833 0.833" calcMode="spline"/>
    <animateTransform repeatCount="indefinite" dur="3.2s" begin="0s" xlink:href="#_R_G_L_0_G_L_19_G" fill="freeze" attributeName="transform" from="0.25 0.25" to="0.25 0.25" type="scale" additive="sum" keyTimes="0;0.25;0.5;0.75;1" values="0.25 0.25;0.5 0.5;1 1;0.5 0.5;0.25 0.25" keySplines="0.167 0.167 0.833 0.833;0.167 0.167 0.833 0.833;0.167 0.167 0.833 0.833;0.167 0.167 0.833 0.833" calcMode="spline"/>
    <animateMotion repeatCount="indefinite" dur="3.2s" begin="0s" xlink:href="#_R_G_L_0_G_L_18_G" fill="freeze" keyTimes="0;0.25;0.75;1" path="M0 1.54 C0,1.54 960,1.54 960,1.54 C960,1.54 -960,1.54 -960,1.54 C-960,1.54 -484.43,1.54 0.01,1.54 " keyPoints="0;0.25;0.75;1" keySplines="0.167 0.167 0.833 0.833;0.167 0.167 0.833 0.833;0.167 0.167 0.833 0.833" calcMode="spline"/>
    <animateTransform repeatCount="indefinite" dur="3.2s" begin="0s" xlink:href="#_R_G_L_0_G_L_18_G" fill="freeze" attributeName="transform" from="1 1" to="1 1" type="scale" additive="sum" keyTimes="0;0.25;0.5;0.75;1" values="1 1;0.5 0.5;0.25 0.25;0.5 0.5;1 1" keySplines="0.167 0.167 0.833 0.833;0.167 0.167 0.833 0.833;0.167 0.167 0.833 0.833;0.167 0.167 0.833 0.833" calcMode="spline"/>
    <animateTransform repeatCount="indefinite" dur="3.2s" begin="0s" xlink:href="#_R_G_L_0_G_L_17_G" fill="freeze" attributeName="transform" from="0.44667 1" to="0.44667 1" type="scale" additive="sum" keyTimes="0;0.125;0.375;0.625;0.875;1" values="0.44667 1;0 1;1 1;0 1;0.89333 1;0.44667 1" keySplines="0.167 0.167 0.833 0.833;0.167 0.167 0.833 0.833;0.167 0.167 0.833 0.833;0.167 0.167 0.833 0.833;0.167 0.167 0.833 0.833" calcMode="spline"/>
    <animateMotion repeatCount="indefinite" dur="3.2s" begin="0s" xlink:href="#_R_G_L_0_G_L_16_G" fill="freeze" keyTimes="0;0.375;0.875;1" path="M479.99 1.54 C479.99,1.54 -960,1.54 -960,1.54 C-960,1.54 960,1.54 960,1.54 C960,1.54 756.43,1.54 480,1.54 " keyPoints="0;0.37;0.87;1" keySplines="0.167 0.167 0.833 0.833;0.167 0.167 0.833 0.833;0.167 0.167 0.833 0.833" calcMode="spline"/>
    <animateTransform repeatCount="indefinite" dur="3.2s" begin="0s" xlink:href="#_R_G_L_0_G_L_16_G" fill="freeze" attributeName="transform" from="0.375 0.375" to="0.375 0.375" type="scale" additive="sum" keyTimes="0;0.125;0.375;0.625;0.875;1" values="0.375 0.375;0.25 0.25;0.5 0.5;1 1;0.5 0.5;0.375 0.375" keySplines="0.167 0.167 0.833 0.833;0.167 0.167 0.833 0.833;0.167 0.167 0.833 0.833;0.167 0.167 0.833 0.833;0.167 0.167 0.833 0.833" calcMode="spline"/>
    <animateMotion repeatCount="indefinite" dur="3.2s" begin="0s" xlink:href="#_R_G_L_0_G_L_15_G" fill="freeze" keyTimes="0;0.375;0.875;1" path="M-479.99 1.54 C-479.99,1.54 960,1.54 960,1.54 C960,1.54 -960,1.54 -960,1.54 C-960,1.54 -756.43,1.54 -480,1.54 " keyPoints="0;0.37;0.87;1" keySplines="0.167 0.167 0.833 0.833;0.167 0.167 0.833 0.833;0.167 0.167 0.833 0.833" calcMode="spline"/>
    <animateTransform repeatCount="indefinite" dur="3.2s" begin="0s" xlink:href="#_R_G_L_0_G_L_15_G" fill="freeze" attributeName="transform" from="0.75 0.75" to="0.75 0.75" type="scale" additive="sum" keyTimes="0;0.125;0.375;0.625;0.875;1" values="0.75 0.75;1 1;0.5 0.5;0.25 0.25;0.5 0.5;0.75 0.75" keySplines="0.167 0.167 0.833 0.833;0.167 0.167 0.833 0.833;0.167 0.167 0.833 0.833;0.167 0.167 0.833 0.833;0.167 0.167 0.833 0.833" calcMode="spline"/>
    <animateTransform repeatCount="indefinite" dur="3.2s" begin="0s" xlink:href="#_R_G_L_0_G_L_14_G" fill="freeze" attributeName="transform" from="0.89333 1" to="0.89333 1" type="scale" additive="sum" keyTimes="0;0.25;0.5;0.75;1" values="0.89333 1;0 1;1 1;0 1;0.89333 1" keySplines="0.167 0.167 0.833 0.833;0.167 0.167 0.833 0.833;0.167 0.167 0.833 0.833;0.167 0.167 0.833 0.833" calcMode="spline"/>
    <animateMotion repeatCount="indefinite" dur="3.2s" begin="0s" xlink:href="#_R_G_L_0_G_L_13_G" fill="freeze" keyTimes="0;0.5;1" path="M960 1.54 C640,1.54 -960,1.54 -960,1.54 C-960,1.54 640,1.54 960,1.54 " keyPoints="0;0.5;1" keySplines="0.167 0.167 0.833 0.833;0.167 0.167 0.833 0.833" calcMode="spline"/>
    <animateTransform repeatCount="indefinite" dur="3.2s" begin="0s" xlink:href="#_R_G_L_0_G_L_13_G" fill="freeze" attributeName="transform" from="0.5 0.5" to="0.5 0.5" type="scale" additive="sum" keyTimes="0;0.25;0.5;0.75;1" values="0.5 0.5;0.25 0.25;0.5 0.5;1 1;0.5 0.5" keySplines="0.167 0.167 0.833 0.833;0.167 0.167 0.833 0.833;0.167 0.167 0.833 0.833;0.167 0.167 0.833 0.833" calcMode="spline"/>
    <animateMotion repeatCount="indefinite" dur="3.2s" begin="0s" xlink:href="#_R_G_L_0_G_L_12_G" fill="freeze" keyTimes="0;0.5;1" path="M-960 1.54 C-640,1.54 960,1.54 960,1.54 C960,1.54 -640,1.54 -960,1.54 " keyPoints="0;0.5;1" keySplines="0.167 0.167 0.833 0.833;0.167 0.167 0.833 0.833" calcMode="spline"/>
    <animateTransform repeatCount="indefinite" dur="3.2s" begin="0s" xlink:href="#_R_G_L_0_G_L_12_G" fill="freeze" attributeName="transform" from="0.5 0.5" to="0.5 0.5" type="scale" additive="sum" keyTimes="0;0.25;0.5;0.75;1" values="0.5 0.5;1 1;0.5 0.5;0.25 0.25;0.5 0.5" keySplines="0.167 0.167 0.833 0.833;0.167 0.167 0.833 0.833;0.167 0.167 0.833 0.833;0.167 0.167 0.833 0.833" calcMode="spline"/>
    <animateTransform repeatCount="indefinite" dur="3.2s" begin="0s" xlink:href="#_R_G_L_0_G_L_11_G" fill="freeze" attributeName="transform" from="0.44667 1" to="0.44667 1" type="scale" additive="sum" keyTimes="0;0.125;0.375;0.625;0.875;1" values="0.44667 1;0.89333 1;0 1;1 1;0 1;0.44667 1" keySplines="0.167 0.167 0.833 0.833;0.167 0.167 0.833 0.833;0.167 0.167 0.833 0.833;0.167 0.167 0.833 0.833;0.167 0.167 0.833 0.833" calcMode="spline"/>
    <animateMotion repeatCount="indefinite" dur="3.2s" begin="0s" xlink:href="#_R_G_L_0_G_L_10_G" fill="freeze" keyTimes="0;0.125;0.625;1" path="M480 1.54 C756.43,1.54 960,1.54 960,1.54 C960,1.54 -960,1.54 -960,1.54 C-960,1.54 480,1.54 480,1.54 " keyPoints="0;0.13;0.63;1" keySplines="0.167 0.167 0.833 0.833;0.167 0.167 0.833 0.833;0.167 0.167 0.833 0.833" calcMode="spline"/>
    <animateTransform repeatCount="indefinite" dur="3.2s" begin="0s" xlink:href="#_R_G_L_0_G_L_10_G" fill="freeze" attributeName="transform" from="0.75 0.75" to="0.75 0.75" type="scale" additive="sum" keyTimes="0;0.125;0.375;0.625;0.875;1" values="0.75 0.75;0.5 0.5;0.25 0.25;0.5 0.5;1 1;0.75 0.75" keySplines="0.167 0.167 0.833 0.833;0.167 0.167 0.833 0.833;0.167 0.167 0.833 0.833;0.167 0.167 0.833 0.833;0.167 0.167 0.833 0.833" calcMode="spline"/>
    <animateMotion repeatCount="indefinite" dur="3.2s" begin="0s" xlink:href="#_R_G_L_0_G_L_9_G" fill="freeze" keyTimes="0;0.125;0.625;1" path="M-480 1.54 C-756.43,1.54 -960,1.54 -960,1.54 C-960,1.54 960,1.54 960,1.54 C960,1.54 -480,1.54 -480,1.54 " keyPoints="0;0.13;0.63;1" keySplines="0.167 0.167 0.833 0.833;0.167 0.167 0.833 0.833;0.167 0.167 0.833 0.833" calcMode="spline"/>
    <animateTransform repeatCount="indefinite" dur="3.2s" begin="0s" xlink:href="#_R_G_L_0_G_L_9_G" fill="freeze" attributeName="transform" from="0.375 0.375" to="0.375 0.375" type="scale" additive="sum" keyTimes="0;0.125;0.375;0.625;0.875;1" values="0.375 0.375;0.5 0.5;1 1;0.5 0.5;0.25 0.25;0.375 0.375" keySplines="0.167 0.167 0.833 0.833;0.167 0.167 0.833 0.833;0.167 0.167 0.833 0.833;0.167 0.167 0.833 0.833;0.167 0.167 0.833 0.833" calcMode="spline"/>
    <animateTransform repeatCount="indefinite" dur="3.2s" begin="0s" xlink:href="#_R_G_L_0_G_L_8_G" fill="freeze" attributeName="transform" from="0 1" to="0 1" type="scale" additive="sum" keyTimes="0;0.25;0.5;0.75;1" values="0 1;0.89333 1;0 1;1 1;0 1" keySplines="0.167 0.167 0.833 0.833;0.167 0.167 0.833 0.833;0.167 0.167 0.833 0.833;0.167 0.167 0.833 0.833" calcMode="spline"/>
    <animateMotion repeatCount="indefinite" dur="3.2s" begin="0s" xlink:href="#_R_G_L_0_G_L_7_G" fill="freeze" keyTimes="0;0.25;0.75;1" path="M-0.01 1.54 C484.44,1.54 960,1.54 960,1.54 C960,1.54 -960,1.54 -960,1.54 C-960,1.54 0,1.54 0,1.54 " keyPoints="0;0.25;0.75;1" keySplines="0.167 0.167 0.833 0.833;0.167 0.167 0.833 0.833;0.167 0.167 0.833 0.833" calcMode="spline"/>
    <animateTransform repeatCount="indefinite" dur="3.2s" begin="0s" xlink:href="#_R_G_L_0_G_L_7_G" fill="freeze" attributeName="transform" from="1 1" to="1 1" type="scale" additive="sum" keyTimes="0;0.25;0.5;0.75;1" values="1 1;0.5 0.5;0.25 0.25;0.5 0.5;1 1" keySplines="0.167 0.167 0.833 0.833;0.167 0.167 0.833 0.833;0.167 0.167 0.833 0.833;0.167 0.167 0.833 0.833" calcMode="spline"/>
    <animateMotion repeatCount="indefinite" dur="3.2s" begin="0s" xlink:href="#_R_G_L_0_G_L_6_G" fill="freeze" keyTimes="0;0.25;0.75;1" path="M0.01 1.54 C-484.43,1.54 -960,1.54 -960,1.54 C-960,1.54 960,1.54 960,1.54 C960,1.54 0,1.54 0,1.54 " keyPoints="0;0.25;0.75;1" keySplines="0.167 0.167 0.833 0.833;0.167 0.167 0.833 0.833;0.167 0.167 0.833 0.833" calcMode="spline"/>
    <animateTransform repeatCount="indefinite" dur="3.2s" begin="0s" xlink:href="#_R_G_L_0_G_L_6_G" fill="freeze" attributeName="transform" from="0.25 0.25" to="0.25 0.25" type="scale" additive="sum" keyTimes="0;0.25;0.5;0.75;1" values="0.25 0.25;0.5 0.5;1 1;0.5 0.5;0.25 0.25" keySplines="0.167 0.167 0.833 0.833;0.167 0.167 0.833 0.833;0.167 0.167 0.833 0.833;0.167 0.167 0.833 0.833" calcMode="spline"/>
    <animateTransform repeatCount="indefinite" dur="3.2s" begin="0s" xlink:href="#_R_G_L_0_G_L_5_G" fill="freeze" attributeName="transform" from="0.5 1" to="0.5 1" type="scale" additive="sum" keyTimes="0;0.125;0.375;0.625;0.875;1" values="0.5 1;0 1;0.89333 1;0 1;1 1;0.5 1" keySplines="0.167 0.167 0.833 0.833;0.167 0.167 0.833 0.833;0.167 0.167 0.833 0.833;0.167 0.167 0.833 0.833;0.167 0.167 0.833 0.833" calcMode="spline"/>
    <animateMotion repeatCount="indefinite" dur="3.2s" begin="0s" xlink:href="#_R_G_L_0_G_L_4_G" fill="freeze" keyTimes="0;0.375;0.875;1" path="M-480 1.54 C104.98,1.54 960,1.54 960,1.54 C960,1.54 -960,1.54 -960,1.54 C-960,1.54 -479.99,1.54 -479.99,1.54 " keyPoints="0;0.37;0.87;1" keySplines="0.167 0.167 0.833 0.833;0.167 0.167 0.833 0.833;0.167 0.167 0.833 0.833" calcMode="spline"/>
    <animateTransform repeatCount="indefinite" dur="3.2s" begin="0s" xlink:href="#_R_G_L_0_G_L_4_G" fill="freeze" attributeName="transform" from="0.75 0.75" to="0.75 0.75" type="scale" additive="sum" keyTimes="0;0.125;0.375;0.625;0.875;1" values="0.75 0.75;1 1;0.5 0.5;0.25 0.25;0.5 0.5;0.75 0.75" keySplines="0.167 0.167 0.833 0.833;0.167 0.167 0.833 0.833;0.167 0.167 0.833 0.833;0.167 0.167 0.833 0.833;0.167 0.167 0.833 0.833" calcMode="spline"/>
    <animateMotion repeatCount="indefinite" dur="3.2s" begin="0s" xlink:href="#_R_G_L_0_G_L_3_G" fill="freeze" keyTimes="0;0.375;0.875;1" path="M480 1.54 C-104.98,1.54 -960,1.54 -960,1.54 C-960,1.54 960,1.54 960,1.54 C960,1.54 479.99,1.54 479.99,1.54 " keyPoints="0;0.37;0.87;1" keySplines="0.167 0.167 0.833 0.833;0.167 0.167 0.833 0.833;0.167 0.167 0.833 0.833" calcMode="spline"/>
    <animateTransform repeatCount="indefinite" dur="3.2s" begin="0s" xlink:href="#_R_G_L_0_G_L_3_G" fill="freeze" attributeName="transform" from="0.375 0.375" to="0.375 0.375" type="scale" additive="sum" keyTimes="0;0.125;0.375;0.625;0.875;1" values="0.375 0.375;0.25 0.25;0.5 0.5;1 1;0.5 0.5;0.375 0.375" keySplines="0.167 0.167 0.833 0.833;0.167 0.167 0.833 0.833;0.167 0.167 0.833 0.833;0.167 0.167 0.833 0.833;0.167 0.167 0.833 0.833" calcMode="spline"/>
    <animateTransform repeatCount="indefinite" dur="3.2s" begin="0s" xlink:href="#_R_G_L_0_G_L_2_G" fill="freeze" attributeName="transform" from="1 1" to="1 1" type="scale" additive="sum" keyTimes="0;0.25;0.5;0.75;1" values="1 1;0 1;0.89333 1;0 1;1 1" keySplines="0.167 0.167 0.833 0.833;0.167 0.167 0.833 0.833;0.167 0.167 0.833 0.833;0.167 0.167 0.833 0.833" calcMode="spline"/>
    <animateMotion repeatCount="indefinite" dur="3.2s" begin="0s" xlink:href="#_R_G_L_0_G_L_1_G" fill="freeze" keyTimes="0;0.5;1" path="M-960 1.54 C-640,1.54 960,1.54 960,1.54 C960,1.54 -640,1.54 -960,1.54 " keyPoints="0;0.5;1" keySplines="0.167 0.167 0.833 0.833;0.167 0.167 0.833 0.833" calcMode="spline"/>
    <animateTransform repeatCount="indefinite" dur="3.2s" begin="0s" xlink:href="#_R_G_L_0_G_L_1_G" fill="freeze" attributeName="transform" from="0.5 0.5" to="0.5 0.5" type="scale" additive="sum" keyTimes="0;0.25;0.5;0.75;1" values="0.5 0.5;1 1;0.5 0.5;0.25 0.25;0.5 0.5" keySplines="0.167 0.167 0.833 0.833;0.167 0.167 0.833 0.833;0.167 0.167 0.833 0.833;0.167 0.167 0.833 0.833" calcMode="spline"/>
    <animateMotion repeatCount="indefinite" dur="3.2s" begin="0s" xlink:href="#_R_G_L_0_G_L_0_G" fill="freeze" keyTimes="0;0.5;1" path="M960 1.54 C640,1.54 -960,1.54 -960,1.54 C-960,1.54 640,1.54 960,1.54 " keyPoints="0;0.5;1" keySplines="0.167 0.167 0.833 0.833;0.167 0.167 0.833 0.833" calcMode="spline"/>
    <animateTransform repeatCount="indefinite" dur="3.2s" begin="0s" xlink:href="#_R_G_L_0_G_L_0_G" fill="freeze" attributeName="transform" from="0.5 0.5" to="0.5 0.5" type="scale" additive="sum" keyTimes="0;0.25;0.5;0.75;1" values="0.5 0.5;0.25 0.25;0.5 0.5;1 1;0.5 0.5" keySplines="0.167 0.167 0.833 0.833;0.167 0.167 0.833 0.833;0.167 0.167 0.833 0.833;0.167 0.167 0.833 0.833" calcMode="spline"/>
    <animate attributeType="XML" attributeName="opacity" dur="3s" from="0" to="1" xlink:href="#time_group"/>
    </defs>

    <g id="_R_G">
      <g id="_R_G_L_1_G" transform=" translate(960, 540) scale(0.45, 0.45) translate(-1920, -1080)">
        <path id="_R_G_L_1_G_D_0_P_0" fill="var(--logo-accent-color)"  fill-rule="nonzero" d=" M3456.78 1594.09 C3456.78,1594.09 3456.78,1389.69 3456.78,1389.69 C3456.78,1389.69 3575.4,1389.69 3575.4,1389.69 C3575.4,1389.69 3575.4,1293.88 3575.4,1293.88 C3575.4,1293.88 3456.78,1293.88 3456.78,1293.88 C3456.78,1293.88 3456.78,1157 3456.78,1157 C3456.78,1157 3347.28,1157 3347.28,1157 C3347.28,1157 3347.28,1293.88 3347.28,1293.88 C3347.28,1293.88 3274.28,1293.88 3274.28,1293.88 C3274.28,1293.88 3274.28,1389.69 3274.28,1389.69 C3274.28,1389.69 3347.28,1389.69 3347.28,1389.69 C3347.28,1389.69 3347.28,1601.39 3347.28,1601.39 C3347.28,1723.67 3412.98,1759.25 3503.32,1759.25 C3529.78,1759.25 3558.98,1753.78 3575.4,1748.3 C3575.4,1748.3 3575.4,1650.67 3575.4,1650.67 C3559.89,1656.14 3540.73,1658.88 3525.22,1658.88 C3477.77,1658.88 3456.78,1638.8 3456.78,1594.09z  M3192.15 1293.88 C3192.15,1293.88 3082.65,1293.88 3082.65,1293.88 C3082.65,1293.88 3082.65,1750.13 3082.65,1750.13 C3082.65,1750.13 3192.15,1750.13 3192.15,1750.13 C3192.15,1750.13 3192.15,1293.88 3192.15,1293.88z "/>
        <path id="_R_G_L_1_G_D_1_P_0" fill="var(--logo-accent-color)"  fill-rule="nonzero" d=" M2313.14 715.63 C2377.02,715.63 2418.99,752.13 2430.85,816 C2430.85,816 2195.43,816 2195.43,816 C2207.29,752.13 2249.27,715.63 2313.14,715.63z  M2539.44 857.06 C2539.44,717.45 2443.63,619.81 2313.14,619.81 C2182.65,619.81 2086.84,717.45 2086.84,857.06 C2086.84,996.68 2182.65,1094.32 2313.14,1094.32 C2420.82,1094.32 2500.2,1043.21 2527.58,948.31 C2527.58,948.31 2408.95,948.31 2408.95,948.31 C2394.35,980.25 2366.07,998.5 2317.7,998.5 C2250.18,998.5 2206.38,960.18 2194.51,893.56 C2194.51,893.56 2537.62,893.56 2537.62,893.56 C2538.53,881.7 2539.44,869.84 2539.44,857.06z  M1694.46 834.25 C1694.46,757.6 1730.96,715.63 1790.28,715.63 C1849.59,715.63 1886.09,757.6 1886.09,834.25 C1886.09,834.25 1886.09,1085.19 1886.09,1085.19 C1886.09,1085.19 1995.59,1085.19 1995.59,1085.19 C1995.59,1085.19 1995.59,812.35 1995.59,812.35 C1995.59,683.69 1922.59,619.81 1825.86,619.81 C1769.29,619.81 1722.75,646.28 1694.46,694.64 C1694.46,694.64 1694.46,628.94 1694.46,628.94 C1694.46,628.94 1584.96,628.94 1584.96,628.94 C1584.96,628.94 1584.96,1085.19 1584.96,1085.19 C1584.96,1085.19 1694.46,1085.19 1694.46,1085.19 C1694.46,1085.19 1694.46,834.25 1694.46,834.25z  M1256.47 993.94 C1186.21,993.94 1133.29,939.19 1133.29,857.06 C1133.29,774.94 1186.21,720.19 1256.47,720.19 C1326.74,720.19 1379.66,774.94 1379.66,857.06 C1379.66,939.19 1326.74,993.94 1256.47,993.94z  M1256.47 1094.32 C1389.7,1094.32 1489.16,996.68 1489.16,857.06 C1489.16,717.45 1389.7,619.81 1256.47,619.81 C1123.25,619.81 1023.79,717.45 1023.79,857.06 C1023.79,996.68 1123.25,1094.32 1256.47,1094.32z  M927.97 400.81 C927.97,400.81 818.47,400.81 818.47,400.81 C818.47,400.81 818.47,1085.19 818.47,1085.19 C818.47,1085.19 927.97,1085.19 927.97,1085.19 C927.97,1085.19 927.97,400.81 927.97,400.81z  M606.79 810.53 C606.79,810.53 721.76,810.53 721.76,810.53 C710.81,696.46 616.82,619.81 493.64,619.81 C362.23,619.81 264.6,717.45 264.6,857.06 C264.6,996.68 362.23,1094.32 493.64,1094.32 C620.47,1094.32 717.2,1014.02 722.67,893.56 C722.67,893.56 609.52,893.56 609.52,893.56 C600.4,960.18 551.12,993.94 493.64,993.94 C425.2,993.94 374.1,939.19 374.1,857.06 C374.1,774.94 425.2,720.19 493.64,720.19 C551.12,720.19 599.49,750.3 606.79,810.53z "/>
      </g>
    <g id="_R_G_L_0_G" transform=" translate(1398.4, 534) rotate(35) scale(0.424, 0.424) translate(-1920, -1080)">
      <g id="_R_G_L_0_G_L_26_G_N_33_T_0" transform=" translate(1920, 1800) scale(0.25, 0.25) translate(0, 0)">
        <g id="_R_G_L_0_G_L_26_G"></g>
      </g>
    <g id="_R_G_L_0_G_L_25_G_N_33_T_0" transform=" translate(1920, 1800) scale(0.25, 0.25) translate(0, 0)">
      <g id="_R_G_L_0_G_L_25_G">
        <path id="_R_G_L_0_G_L_25_G_D_0_P_0" fill="var(--logo-accent-color)"  fill-rule="nonzero" d=" M0 -275.62 C152.12,-275.62 275.63,-152.12 275.63,0 C275.63,152.12 152.12,275.63 0,275.63 C-152.12,275.63 -275.62,152.12 -275.62,0 C-275.62,-152.12 -152.12,-275.62 0,-275.62z "/>
      </g>
    </g>
    <g id="_R_G_L_0_G_L_24_G_N_33_T_0" transform=" translate(1920, 1800) scale(0.25, 0.25) translate(0, 0)"><g id="_R_G_L_0_G_L_24_G" transform=" translate(0, 0)">
      <path id="_R_G_L_0_G_L_24_G_D_0_P_0" fill="var(--logo-accent-color)"  fill-rule="nonzero" d=" M952.39 -21.83 C952.39,-21.83 952.39,21.83 952.39,21.83 C952.39,21.83 -952.39,21.83 -952.39,21.83 C-952.39,21.83 -952.39,-21.83 -952.39,-21.83 C-952.39,-21.83 952.39,-21.83 952.39,-21.83z "/>
    </g>
    </g>
    <g id="_R_G_L_0_G_L_23_G_N_32_T_0" transform=" translate(1920, 1660) scale(0.25, 0.25) translate(0, 0)">
    <g id="_R_G_L_0_G_L_23_G" transform=" translate(0, 0)">
    <path id="_R_G_L_0_G_L_23_G_D_0_P_0" fill="var(--logo-accent-color)"  fill-rule="nonzero" d=" M952.39 -21.83 C952.39,-21.83 952.39,21.83 952.39,21.83 C952.39,21.83 -952.39,21.83 -952.39,21.83 C-952.39,21.83 -952.39,-21.83 -952.39,-21.83 C-952.39,-21.83 952.39,-21.83 952.39,-21.83z "/></g></g><g id="_R_G_L_0_G_L_22_G_N_32_T_0" transform=" translate(1920, 1660) scale(0.25, 0.25) translate(0, 0)"><g id="_R_G_L_0_G_L_22_G"><path id="_R_G_L_0_G_L_22_G_D_0_P_0" fill="var(--logo-accent-color)"  fill-rule="nonzero" d=" M0 -275.62 C152.12,-275.62 275.63,-152.12 275.63,0 C275.63,152.12 152.12,275.63 0,275.63 C-152.12,275.63 -275.62,152.12 -275.62,0 C-275.62,-152.12 -152.12,-275.62 0,-275.62z "/></g></g><g id="_R_G_L_0_G_L_21_G_N_32_T_0" transform=" translate(1920, 1660) scale(0.25, 0.25) translate(0, 0)"><g id="_R_G_L_0_G_L_21_G"><path id="_R_G_L_0_G_L_21_G_D_0_P_0" fill="var(--logo-accent-color)"  fill-rule="nonzero" d=" M0 -275.62 C152.12,-275.62 275.63,-152.12 275.63,0 C275.63,152.12 152.12,275.63 0,275.63 C-152.12,275.63 -275.62,152.12 -275.62,0 C-275.62,-152.12 -152.12,-275.62 0,-275.62z "/></g></g><g id="_R_G_L_0_G_L_20_G_N_28_T_0" transform=" translate(1920, 1500) scale(0.25, 0.25) translate(0, 0)"><g id="_R_G_L_0_G_L_20_G" transform=" translate(0, 0)"><path id="_R_G_L_0_G_L_20_G_D_0_P_0" fill="var(--logo-accent-color)"  fill-rule="nonzero" d=" M952.39 -21.83 C952.39,-21.83 952.39,21.83 952.39,21.83 C952.39,21.83 -952.39,21.83 -952.39,21.83 C-952.39,21.83 -952.39,-21.83 -952.39,-21.83 C-952.39,-21.83 952.39,-21.83 952.39,-21.83z "/></g></g><g id="_R_G_L_0_G_L_19_G_N_28_T_0" transform=" translate(1920, 1500) scale(0.25, 0.25) translate(0, 0)"><g id="_R_G_L_0_G_L_19_G"><path id="_R_G_L_0_G_L_19_G_D_0_P_0" fill="var(--logo-accent-color)"  fill-rule="nonzero" d=" M0 -275.62 C152.12,-275.62 275.63,-152.12 275.63,0 C275.63,152.12 152.12,275.63 0,275.63 C-152.12,275.63 -275.62,152.12 -275.62,0 C-275.62,-152.12 -152.12,-275.62 0,-275.62z "/></g></g><g id="_R_G_L_0_G_L_18_G_N_28_T_0" transform=" translate(1920, 1500) scale(0.25, 0.25) translate(0, 0)"><g id="_R_G_L_0_G_L_18_G"><path id="_R_G_L_0_G_L_18_G_D_0_P_0" fill="var(--logo-accent-color)"  fill-rule="nonzero" d=" M0 -275.62 C152.12,-275.62 275.63,-152.12 275.63,0 C275.63,152.12 152.12,275.63 0,275.63 C-152.12,275.63 -275.62,152.12 -275.62,0 C-275.62,-152.12 -152.12,-275.62 0,-275.62z "/></g></g><g id="_R_G_L_0_G_L_17_G_N_24_T_0" transform=" translate(1920, 1290) scale(0.25, 0.25) translate(0, 0)"><g id="_R_G_L_0_G_L_17_G" transform=" translate(0, 0)"><path id="_R_G_L_0_G_L_17_G_D_0_P_0" fill="var(--logo-accent-color)"  fill-rule="nonzero" d=" M952.39 -21.83 C952.39,-21.83 952.39,21.83 952.39,21.83 C952.39,21.83 -952.39,21.83 -952.39,21.83 C-952.39,21.83 -952.39,-21.83 -952.39,-21.83 C-952.39,-21.83 952.39,-21.83 952.39,-21.83z "/></g></g><g id="_R_G_L_0_G_L_16_G_N_24_T_0" transform=" translate(1920, 1290) scale(0.25, 0.25) translate(0, 0)"><g id="_R_G_L_0_G_L_16_G"><path id="_R_G_L_0_G_L_16_G_D_0_P_0" fill="var(--logo-accent-color)"  fill-rule="nonzero" d=" M0 -275.62 C152.12,-275.62 275.63,-152.12 275.63,0 C275.63,152.12 152.12,275.63 0,275.63 C-152.12,275.63 -275.62,152.12 -275.62,0 C-275.62,-152.12 -152.12,-275.62 0,-275.62z "/>
    </g>
    </g>
    <g id="_R_G_L_0_G_L_15_G_N_24_T_0" transform=" translate(1920, 1290) scale(0.25, 0.25) translate(0, 0)">
    <g id="_R_G_L_0_G_L_15_G">
    <path id="_R_G_L_0_G_L_15_G_D_0_P_0" fill="var(--logo-accent-color)"  fill-rule="nonzero" d=" M0 -275.62 C152.12,-275.62 275.63,-152.12 275.63,0 C275.63,152.12 152.12,275.63 0,275.63 C-152.12,275.63 -275.62,152.12 -275.62,0 C-275.62,-152.12 -152.12,-275.62 0,-275.62z "/></g></g><g id="_R_G_L_0_G_L_14_G_N_20_T_0" transform=" translate(1920, 1080) scale(0.25, 0.25) translate(0, 0)"><g id="_R_G_L_0_G_L_14_G" transform=" translate(0, 0)"><path id="_R_G_L_0_G_L_14_G_D_0_P_0" fill="var(--logo-accent-color)"  fill-rule="nonzero" d=" M952.39 -21.83 C952.39,-21.83 952.39,21.83 952.39,21.83 C952.39,21.83 -952.39,21.83 -952.39,21.83 C-952.39,21.83 -952.39,-21.83 -952.39,-21.83 C-952.39,-21.83 952.39,-21.83 952.39,-21.83z "/></g></g><g id="_R_G_L_0_G_L_13_G_N_20_T_0" transform=" translate(1920, 1080) scale(0.25, 0.25) translate(0, 0)"><g id="_R_G_L_0_G_L_13_G"><path id="_R_G_L_0_G_L_13_G_D_0_P_0" fill="var(--logo-accent-color)"  fill-rule="nonzero" d=" M0 -275.62 C152.12,-275.62 275.63,-152.12 275.63,0 C275.63,152.12 152.12,275.63 0,275.63 C-152.12,275.63 -275.62,152.12 -275.62,0 C-275.62,-152.12 -152.12,-275.62 0,-275.62z "/></g></g><g id="_R_G_L_0_G_L_12_G_N_20_T_0" transform=" translate(1920, 1080) scale(0.25, 0.25) translate(0, 0)"><g id="_R_G_L_0_G_L_12_G"><path id="_R_G_L_0_G_L_12_G_D_0_P_0" fill="var(--logo-accent-color)"  fill-rule="nonzero" d=" M0 -275.62 C152.12,-275.62 275.63,-152.12 275.63,0 C275.63,152.12 152.12,275.63 0,275.63 C-152.12,275.63 -275.62,152.12 -275.62,0 C-275.62,-152.12 -152.12,-275.62 0,-275.62z "/></g></g><g id="_R_G_L_0_G_L_11_G_N_16_T_0" transform=" translate(1920, 862) scale(0.25, 0.25) translate(0, 0)"><g id="_R_G_L_0_G_L_11_G" transform=" translate(0, 0)"><path id="_R_G_L_0_G_L_11_G_D_0_P_0" fill="var(--logo-accent-color)"  fill-rule="nonzero" d=" M952.39 -21.83 C952.39,-21.83 952.39,21.83 952.39,21.83 C952.39,21.83 -952.39,21.83 -952.39,21.83 C-952.39,21.83 -952.39,-21.83 -952.39,-21.83 C-952.39,-21.83 952.39,-21.83 952.39,-21.83z "/>
    </g>
    </g>
    <g id="_R_G_L_0_G_L_10_G_N_16_T_0" transform=" translate(1920, 862) scale(0.25, 0.25) translate(0, 0)">
    <g id="_R_G_L_0_G_L_10_G">
    <path id="_R_G_L_0_G_L_10_G_D_0_P_0" fill="var(--logo-accent-color)"  fill-rule="nonzero" d=" M0 -275.62 C152.12,-275.62 275.63,-152.12 275.63,0 C275.63,152.12 152.12,275.63 0,275.63 C-152.12,275.63 -275.62,152.12 -275.62,0 C-275.62,-152.12 -152.12,-275.62 0,-275.62z "/></g></g><g id="_R_G_L_0_G_L_9_G_N_16_T_0" transform=" translate(1920, 862) scale(0.25, 0.25) translate(0, 0)"><g id="_R_G_L_0_G_L_9_G"><path id="_R_G_L_0_G_L_9_G_D_0_P_0" fill="var(--logo-accent-color)"  fill-rule="nonzero" d=" M0 -275.62 C152.12,-275.62 275.63,-152.12 275.63,0 C275.63,152.12 152.12,275.63 0,275.63 C-152.12,275.63 -275.62,152.12 -275.62,0 C-275.62,-152.12 -152.12,-275.62 0,-275.62z "/>
    </g>
    </g>
    <g id="_R_G_L_0_G_L_8_G_N_12_T_0" transform=" translate(1920, 655) scale(0.25, 0.25) translate(0, 0)"><g id="_R_G_L_0_G_L_8_G" transform=" translate(0, 0)"><path id="_R_G_L_0_G_L_8_G_D_0_P_0" fill="var(--logo-accent-color)"  fill-rule="nonzero" d=" M952.39 -21.83 C952.39,-21.83 952.39,21.83 952.39,21.83 C952.39,21.83 -952.39,21.83 -952.39,21.83 C-952.39,21.83 -952.39,-21.83 -952.39,-21.83 C-952.39,-21.83 952.39,-21.83 952.39,-21.83z "/></g></g><g id="_R_G_L_0_G_L_7_G_N_12_T_0" transform=" translate(1920, 655) scale(0.25, 0.25) translate(0, 0)"><g id="_R_G_L_0_G_L_7_G"><path id="_R_G_L_0_G_L_7_G_D_0_P_0" fill="var(--logo-accent-color)"  fill-rule="nonzero" d=" M0 -275.62 C152.12,-275.62 275.63,-152.12 275.63,0 C275.63,152.12 152.12,275.63 0,275.63 C-152.12,275.63 -275.62,152.12 -275.62,0 C-275.62,-152.12 -152.12,-275.62 0,-275.62z "/></g></g><g id="_R_G_L_0_G_L_6_G_N_12_T_0" transform=" translate(1920, 655) scale(0.25, 0.25) translate(0, 0)"><g id="_R_G_L_0_G_L_6_G"><path id="_R_G_L_0_G_L_6_G_D_0_P_0" fill="var(--logo-accent-color)"  fill-rule="nonzero" d=" M0 -275.62 C152.12,-275.62 275.63,-152.12 275.63,0 C275.63,152.12 152.12,275.63 0,275.63 C-152.12,275.63 -275.62,152.12 -275.62,0 C-275.62,-152.12 -152.12,-275.62 0,-275.62z "/></g></g><g id="_R_G_L_0_G_L_5_G_N_8_T_0" transform=" translate(1920, 470) scale(0.25, 0.25) translate(0, 0)"><g id="_R_G_L_0_G_L_5_G" transform=" translate(0, 0)"><path id="_R_G_L_0_G_L_5_G_D_0_P_0" fill="var(--logo-accent-color)"  fill-rule="nonzero" d=" M952.39 -21.83 C952.39,-21.83 952.39,21.83 952.39,21.83 C952.39,21.83 -952.39,21.83 -952.39,21.83 C-952.39,21.83 -952.39,-21.83 -952.39,-21.83 C-952.39,-21.83 952.39,-21.83 952.39,-21.83z "/></g></g><g id="_R_G_L_0_G_L_4_G_N_8_T_0" transform=" translate(1920, 470) scale(0.25, 0.25) translate(0, 0)"><g id="_R_G_L_0_G_L_4_G"><path id="_R_G_L_0_G_L_4_G_D_0_P_0" fill="var(--logo-accent-color)"  fill-rule="nonzero" d=" M0 -275.62 C152.12,-275.62 275.63,-152.12 275.63,0 C275.63,152.12 152.12,275.63 0,275.63 C-152.12,275.63 -275.62,152.12 -275.62,0 C-275.62,-152.12 -152.12,-275.62 0,-275.62z "/></g></g><g id="_R_G_L_0_G_L_3_G_N_8_T_0" transform=" translate(1920, 470) scale(0.25, 0.25) translate(0, 0)"><g id="_R_G_L_0_G_L_3_G"><path id="_R_G_L_0_G_L_3_G_D_0_P_0" fill="var(--logo-accent-color)"  fill-rule="nonzero" d=" M0 -275.62 C152.12,-275.62 275.63,-152.12 275.63,0 C275.63,152.12 152.12,275.63 0,275.63 C-152.12,275.63 -275.62,152.12 -275.62,0 C-275.62,-152.12 -152.12,-275.62 0,-275.62z "/></g></g><g id="_R_G_L_0_G_L_2_G_N_4_T_0" transform=" translate(1920, 308) scale(0.25, 0.25) translate(0, 0)"><g id="_R_G_L_0_G_L_2_G" transform=" translate(0, 0)"><path id="_R_G_L_0_G_L_2_G_D_0_P_0" fill="var(--logo-accent-color)"  fill-rule="nonzero" d=" M952.39 -21.83 C952.39,-21.83 952.39,21.83 952.39,21.83 C952.39,21.83 -952.39,21.83 -952.39,21.83 C-952.39,21.83 -952.39,-21.83 -952.39,-21.83 C-952.39,-21.83 952.39,-21.83 952.39,-21.83z "/></g></g><g id="_R_G_L_0_G_L_1_G_N_4_T_0" transform=" translate(1920, 308) scale(0.25, 0.25) translate(0, 0)"><g id="_R_G_L_0_G_L_1_G"><path id="_R_G_L_0_G_L_1_G_D_0_P_0" fill="var(--logo-accent-color)"  fill-rule="nonzero" d=" M0 -275.62 C152.12,-275.62 275.63,-152.12 275.63,0 C275.63,152.12 152.12,275.63 0,275.63 C-152.12,275.63 -275.62,152.12 -275.62,0 C-275.62,-152.12 -152.12,-275.62 0,-275.62z "/></g></g><g id="_R_G_L_0_G_L_0_G_N_4_T_0" transform=" translate(1920, 308) scale(0.25, 0.25) translate(0, 0)"><g id="_R_G_L_0_G_L_0_G"><path id="_R_G_L_0_G_L_0_G_D_0_P_0" fill="var(--logo-accent-color)"  fill-rule="nonzero" d=" M0 -275.62 C152.12,-275.62 275.63,-152.12 275.63,0 C275.63,152.12 152.12,275.63 0,275.63 C-152.12,275.63 -275.62,152.12 -275.62,0 C-275.62,-152.12 -152.12,-275.62 0,-275.62z "/></g></g></g></g><g id="time_group"/>
    </svg>
